<?xml version="1.0" standalone="no"?>
<!DOCTYPE svg PUBLIC "-//W3C//DTD SVG 20010904//EN"
 "http://www.w3.org/TR/2001/REC-SVG-20010904/DTD/svg10.dtd">
<svg version="1.0" xmlns="http://www.w3.org/2000/svg"
 width="144.000000pt" height="144.000000pt" viewBox="0 0 144.000000 144.000000"
 preserveAspectRatio="xMidYMid meet">
<metadata>
Created by potrace 1.11, written by Peter Selinger 2001-2013
</metadata>
<g transform="translate(0.000000,144.000000) scale(0.100000,-0.100000)"
fill="#000000" stroke="none">
<path d="M982 1118 c-7 -13 -23 -54 -38 -93 -14 -38 -32 -83 -39 -100 -7 -16
-48 -120 -91 -230 -42 -110 -94 -243 -114 -295 -25 -63 -34 -97 -27 -102 19
-12 45 11 57 49 7 21 18 52 26 68 7 17 45 113 85 215 60 155 177 453 196 498
10 23 -43 14 -55 -10z"/>
<path d="M1142 1016 c-17 -5 -32 -14 -32 -20 -1 -6 -9 -29 -20 -51 -11 -22
-19 -43 -20 -47 0 -4 20 2 45 13 25 11 64 21 88 23 48 4 141 -17 176 -40 28
-19 39 -8 35 34 -1 15 -2 32 -3 38 -1 11 -65 39 -112 50 -43 10 -124 10 -157
0z"/>
<path d="M10 1001 c0 -7 149 -407 170 -456 13 -30 47 -118 54 -137 6 -19 56
-26 56 -8 0 8 129 362 166 453 7 20 21 -10 106 -230 24 -62 46 -113 50 -113 6
0 44 100 41 110 -1 3 -35 91 -76 195 l-74 190 -39 0 -39 0 -54 -145 c-29 -80
-59 -158 -66 -175 -8 -16 -17 -42 -20 -58 -4 -15 -10 -29 -14 -31 -6 -4 -40
79 -132 327 l-32 87 -49 0 c-26 0 -48 -4 -48 -9z"/>
<path d="M972 640 c-5 -14 -17 -43 -26 -64 -16 -39 -16 -40 9 -78 48 -72 149
-120 250 -120 58 0 88 5 156 27 64 21 70 35 60 118 -1 5 -18 -1 -38 -12 -161
-89 -344 -37 -387 108 -13 44 -14 45 -24 21z"/>
</g>
</svg>
